# xmcd CD database file
#
# Track frame offsets:
#	150
#	13660
#	34079
#	53648
#	89288
#	102422
#	124011
#	144594
#	159229
#	190203
#	206988
#	240197
#
# Disc length: 3333 seconds
#
# Revision: 0
# Processed by: cddbd v1.5.2PL0 Copyright (c) Steve Scherf et al.
# Submitted via: CDex 1.51
#
DISCID=990d030c
DTITLE=Guido Negaszus - Sailing Away
DYEAR=2005
DGENRE=New Age
TTITLE0=Ocean Breath
TTITLE1=Sailing
TTITLE2=Eagle
TTITLE3=Great Ocean Dream
TTITLE4=Beyond Horizon
TTITLE5=Voyager In The Sky
TTITLE6=Island Of Dreams
TTITLE7=Heaven Is Here
TTITLE8=Moonlight Dance
TTITLE9=Summernight's Tale
TTITLE10=Ocean Ahead
TTITLE11=Fragrance Of Peace
EXTD=YEAR: 2005
EXTT0=
EXTT1=
EXTT2=
EXTT3=
EXTT4=
EXTT5=
EXTT6=
EXTT7=
EXTT8=
EXTT9=
EXTT10=
EXTT11=
PLAYORDER=
